HIERARCHY
ROOT Hips
{
  OFFSET -33.9132 29.2015 117.021
  CHANNELS 6 Xposition Yposition Zposition Zrotation Xrotation Yrotation
  JOINT LeftUpLeg
  {
    OFFSET 8.64259 1.95398 -2.38835
    CHANNELS 3 Zrotation Xrotation Yrotation
    JOINT LeftLeg
    {
      OFFSET 43.7702 0 0
      CHANNELS 3 Zrotation Xrotation Yrotation
      JOINT LeftFoot
      {
        OFFSET 40.6238 0 0
        CHANNELS 3 Zrotation Xrotation Yrotation
        JOINT LeftToeBase
        {
          OFFSET 12.7242 0 0
          CHANNELS 3 Zrotation Xrotation Yrotation
          End Site
          {
            OFFSET 0 0 0
          }
        }
      }
    }
  }
  JOINT RightUpLeg
  {
    OFFSET -8.2249 1.95398 -2.59336
    CHANNELS 3 Zrotation Xrotation Yrotation
    JOINT RightLeg
    {
      OFFSET 43.5653 0 0
      CHANNELS 3 Zrotation Xrotation Yrotation
      JOINT RightFoot
      {
        OFFSET 40.6238 0 0
        CHANNELS 3 Zrotation Xrotation Yrotation
        JOINT RightToeBase
        {
          OFFSET 12.7242 0 0
          CHANNELS 3 Zrotation Xrotation Yrotation
          End Site
          {
            OFFSET 0 0 0
          }
        }
      }
    }
  }
  JOINT Spine
  {
    OFFSET 0.165834 0.87714 6.61349
    CHANNELS 3 Zrotation Xrotation Yrotation
    JOINT Spine1
    {
      OFFSET 7.38963 1.71661e-005 0
      CHANNELS 3 Zrotation Xrotation Yrotation
      JOINT Spine2
      {
        OFFSET 11.9445 1.14441e-005 0
        CHANNELS 3 Zrotation Xrotation Yrotation
        JOINT Spine3
        {
          OFFSET 14.7254 4.19617e-005 0
          CHANNELS 3 Zrotation Xrotation Yrotation
          JOINT Spine4
          {
            OFFSET 10.9679 0 0
            CHANNELS 3 Zrotation Xrotation Yrotation
            JOINT RightShoulder
            {
              OFFSET 2.46616 -1.6653 3.69651
              CHANNELS 3 Zrotation Xrotation Yrotation
              JOINT RightArm
              {
                OFFSET 13.0012 0 0
                CHANNELS 3 Zrotation Xrotation Yrotation
                JOINT RightForeArm
                {
                  OFFSET 28.7848 1.62311e-005 0
                  CHANNELS 3 Zrotation Xrotation Yrotation
                  JOINT RightHand
                  {
                    OFFSET 26.5688 1.62095e-005 0
                    CHANNELS 3 Zrotation Xrotation Yrotation
                    End Site
                    {
                      OFFSET 0 0 0
                    }
                  }
                }
              }
            }
            JOINT LeftShoulder
            {
              OFFSET 2.38034 -1.29275 -3.7523
              CHANNELS 3 Zrotation Xrotation Yrotation
              JOINT LeftArm
              {
                OFFSET 16.3182 6.07031e-005 0
                CHANNELS 3 Zrotation Xrotation Yrotation
                JOINT LeftForeArm
                {
                  OFFSET 27.0901 0 0
                  CHANNELS 3 Zrotation Xrotation Yrotation
                  JOINT LeftHand
                  {
                    OFFSET 24.5451 1.51738e-005 0
                    CHANNELS 3 Zrotation Xrotation Yrotation
                    End Site
                    {
                      OFFSET 0 0 0
                    }
                  }
                }
              }
            }
            JOINT Neck
            {
              OFFSET 5.0226 -0.0266342 0
              CHANNELS 3 Zrotation Xrotation Yrotation
              JOINT Head
              {
                OFFSET 6.69364 2.86102e-005 0
                CHANNELS 3 Zrotation Xrotation Yrotation
                End Site
                {
                  OFFSET 0 0 0
                }
              }
            }
          }
        }
      }
    }
  }
}
MOTION
Frames:	7
Frame Time:	0.0416667
-80.5481 96.7701 -81.6699 101.033 -69.2649 98.8982 -172.612 12.0135 91.0135 -37.5481 30.2655 -1.91095 77.9651 13.2246 2.11324 21.6079 -1.4434 -3.81797 164.504 1.14363 82.7954 -41.691 9.15708 3.27138 79.1206 -12.546 -0.59892 32.1822 -2.16509 2.94665 1.13535 8.10137 -90.2661 10.6787 2.13853 -0.724468 -0.990707 2.10459 -0.817923 -23.54 2.25736 -0.0479368 -3.52731 2.25736 -0.0479433 89.8651 -26.4048 -108.497 41.1122 1.10266 20.4404 -41.2638 -23.2886 -65.7215 -25.7715 8.54645 -42.1108 -88.4648 -48.8789 80.8127 -7.5165 6.65986 -19.3783 -156.131 -18.6054 -131.482 -20.6495 -11.5196 35.4399 17.8789 31.5362 7.00027 -2.01973 28.6955 2.09905 
-80.7089 97.8196 -80.7277 98.6507 -65.3314 97.0407 -173.416 10.623 91.769 -34.0743 34.1627 -1.10324 75.7832 11.7718 2.45266 22.4166 -1.463 -3.05471 163.882 1.30622 82.9412 -40.1341 8.92435 4.37845 78.0339 -11.9534 -0.939485 31.9927 -2.29538 3.96657 0.958429 8.02276 -90.4049 10.8364 1.72141 -0.965503 -0.83387 1.67724 -1.04035 -23.3774 1.93199 -0.403354 -3.36477 1.93197 -0.403371 89.9186 -26.8194 -108.206 42.9562 4.31671 6.97291 -33.9202 -43.8082 -43.0378 -24.393 7.83682 -41.2691 -88.4235 -47.6647 80.6372 -8.18489 2.96845 -26.6777 -156.809 -18.7513 -132.101 -22.2812 -12.0451 35.345 16.1433 33.2881 7.87448 -1.07312 30.3655 2.33838 
-81.2424 98.8114 -79.7927 96.8026 -62.5402 95.5535 -173.972 9.06603 92.3861 -29.8237 37.5115 -0.395522 73.5726 10.5637 3.66456 21.8425 -0.914932 -4.69529 163.996 0.997023 83.0813 -36.608 11.9561 5.07508 77.5386 -10.9522 0.767019 31.1283 -1.94106 3.97124 0.883255 7.9073 -90.439 11.0663 1.55473 -1.02354 -0.604211 1.50818 -1.09098 -23.1458 1.79042 -0.508867 -3.13313 1.79045 -0.50886 89.9783 -27.5487 -107.777 43.6859 7.63914 -4.2596 -6.76255 -57.7921 -6.49337 -25.9762 7.68683 -38.4562 -87.9658 -46.0993 81.0412 -9.54708 0.564272 -32.4388 -157.932 -19.161 -133.784 -22.9895 -12.6484 36.4456 16.8257 34.5626 7.53708 -1.93712 31.6386 2.32754 
-81.9088 99.4412 -78.7015 96.0058 -60.5086 94.8773 -174.099 7.67726 93.1538 -26.8436 39.6745 0.0928854 71.8663 9.19255 3.26967 23.6852 -0.652947 -3.60671 164.114 0.234249 83.0996 -32.1602 10.8962 5.29475 75.4889 -10.5239 -1.824 32.3346 -2.0114 1.89485 0.901259 7.84928 -90.4951 11.1831 1.56367 -1.13908 -0.487452 1.51204 -1.20681 -23.0287 1.8337 -0.616388 -3.01603 1.83371 -0.616376 90.5451 -26.9321 -106.859 44.2739 8.96306 2.07684 -6.16665 -52.5537 -6.03258 -19.349 4.94177 -34.5707 -87.78 -44.8597 81.092 -12.5986 -1.90871 -37.6073 -156.894 -20.6425 -133.565 -25.2233 -13.0441 35.0822 17.1132 35.4496 8.17409 -2.40268 32.3261 2.11499 
-82.8866 99.5686 -77.6832 94.9912 -58.8607 93.5323 -174.078 7.3509 93.7139 -25.404 40.5392 0.304524 71.4256 8.49756 1.77306 24.5734 -0.597059 -2.89086 164.302 0.136751 82.7742 -29.2772 11.5674 4.84861 75.1084 -10.4792 -1.05411 32.7917 -2.41297 2.90538 0.867283 7.79546 -90.4447 11.2899 1.51888 -1.03657 -0.380642 1.47179 -1.10243 -22.9218 1.76018 -0.532072 -2.90914 1.76017 -0.532077 91.0533 -26.3636 -106.014 45.1647 9.93856 7.26151 -5.8623 -49.3024 -5.81327 -15.7203 3.3731 -30.3799 -87.6218 -44.7422 81.3218 -14.9672 -3.91639 -41.6311 -155.542 -22.7153 -133.731 -26.9687 -12.9123 32.8542 16.949 35.9116 8.3425 -2.67151 32.7568 2.29916 
-84.3426 99.4433 -76.4777 94.5032 -57.6371 92.5272 -174.018 6.99784 94.2158 -24.243 43.491 0.551106 70.5805 8.6581 4.41223 27.2692 0.700162 -3.24921 164.598 -0.0629025 82.8525 -27.4051 10.8125 4.29657 73.6862 -9.97377 -1.18055 33.3 -2.62343 2.89229 0.84533 7.82314 -90.4019 11.2337 1.49539 -0.94761 -0.436795 1.45225 -1.01252 -22.978 1.71104 -0.454282 -2.96534 1.71105 -0.454286 91.6797 -25.4307 -105.057 46.6855 10.3716 10.6709 -5.61999 -46.3823 -5.64949 -14.9242 2.70662 -26.6511 -88.2692 -45.6201 80.468 -16.4775 -5.62732 -45.2352 -154.453 -26.5156 -134.97 -28.2891 -12.2458 29.6294 16.6683 34.1467 8.42469 -2.07249 31.018 1.28516 
-86.2196 99.1393 -74.9609 94.2444 -57.0599 90.979 -174.111 5.80531 94.4149 -22.2136 42.8705 0.952903 71.0317 8.481 2.4135 28.6376 0.413931 -1.15022 164.458 -0.142783 82.5136 -26.4207 11.5655 4.2042 72.8215 -9.0217 0.777755 33.2065 -2.46578 2.28536 0.6815 7.81119 -90.1424 11.2543 1.2901 -0.411177 -0.416043 1.27074 -0.467562 -22.9563 1.35399 -0.00437983 -2.94369 1.354 -0.00437877 91.7255 -25.4736 -104.942 47.8732 10.6205 12.7747 -5.47357 -44.4562 -5.55568 -12.7038 2.16703 -25.6033 -88.4202 -46.4544 80.4006 -16.2968 -6.95135 -46.9709 -154.478 -30.9435 -137.451 -27.3398 -10.5457 25.5729 16.0329 27.5689 5.67848 -2.29442 25.2849 -0.219025 
